Coordinates
version=1
nRows=15
nColumns=46
inDegrees=yes

Units are S.I. units (second, meters, Newtons, ...)
Angles are in degrees.

endheader
time	pelvis_tilt	pelvis_list	pelvis_rotation	pelvis_tx	pelvis_ty	pelvis_tz	bb_angle	bb_tx	bb_ty	bb_tz	hip_flexion_r	hip_adduction_r	hip_rotation_r	knee_angle_r	knee_angle_r_beta	ankle_angle_r	subtalar_angle_r	mtp_angle_r	crank_angle_r	hip_flexion_l	hip_adduction_l	hip_rotation_l	knee_angle_l	knee_angle_l_beta	ankle_angle_l	subtalar_angle_l	mtp_angle_l	crank_angle_l	lumbar_extension	lumbar_bending	lumbar_rotation	arm_flex_r	arm_add_r	arm_rot_r	elbow_flex_r	pro_sup_r	wrist_flex_r	wrist_dev_r	arm_flex_l	arm_add_l	arm_rot_l	elbow_flex_l	pro_sup_l	wrist_flex_l	wrist_dev_l
      5.00000000	    -31.99830435	      1.72553536	    -18.87751546	      0.36798181	      1.16615815	     -0.31560171	      0.00000000	      0.50000000	      0.00000000	      0.25000000	     60.97212387	      2.46418312	      2.64416804	     53.29272314	      0.93013349	      4.71358769	      5.87147730	      0.00000000	      0.00000000	     50.35459393	     -7.17351024	     -0.50357047	     71.32027072	      1.24477355	    -28.94501457	     -7.14904829	      0.00000000	      0.00000000	    -62.40561056	     -4.92605901	      6.72232671	     52.45440015	    -28.20710885	     25.51339604	    101.61307488	     52.29292249	      0.00000000	      0.00000000	     29.98758856	    -24.13896849	      5.00192724	    100.08986653	     50.61375582	      0.00000000	      0.00000000
      5.00500000	    -32.00583798	      2.20993106	    -18.08250387	      0.36779568	      1.16378396	     -0.31528952	      0.00000000	      0.50000000	      0.00000000	      0.25000000	     59.88384355	      1.92730421	      3.22655070	     51.00120665	      0.89013898	      3.11958376	      4.75994307	      0.00000000	      0.00000000	     51.74466686	     -6.51525397	     -0.30773965	     74.00541265	      1.29163812	    -27.21549263	     -6.33659915	      0.00000000	      0.00000000	    -61.91180252	     -5.08107530	      8.40353838	     49.04731303	    -30.73887267	     21.94166269	    104.42024417	     52.41442867	      0.00000000	      0.00000000	     32.62575333	    -22.37146135	      8.41188367	     97.75507690	     50.69618100	      0.00000000	      0.00000000
      5.01000000	    -31.80683904	      2.73496607	    -17.28997044	      0.36789274	      1.16179235	     -0.31540312	      0.00000000	      0.50000000	      0.00000000	      0.25000000	     58.57972238	      1.23675102	      3.86343448	     48.71289661	      0.85020043	      1.56952712	      3.78572778	      0.00000000	      0.00000000	     52.88691069	     -5.68890804	     -0.22478475	     76.53979340	      1.33587140	    -25.77231884	     -6.02909899	      0.00000000	      0.00000000	    -61.68193219	     -5.01412511	      7.72651127	     48.51197754	    -31.17108733	     21.86733948	    104.42144219	     52.41292972	      0.00000000	      0.00000000	     32.69410840	    -22.25432291	      8.65956886	     97.67951148	     50.72775758	      0.00000000	      0.00000000
      5.01500000	    -31.66702105	      3.30950044	    -16.43191650	      0.36807636	      1.15957749	     -0.31541627	      0.00000000	      0.50000000	      0.00000000	      0.25000000	     57.38698119	      0.45531512	      4.43924200	     46.56213540	      0.81266257	     -0.12099227	      2.80657033	      0.00000000	      0.00000000	     54.13685303	     -4.80917020	     -0.18432089	     79.05898883	      1.37983966	    -24.41345132	     -5.84227160	      0.00000000	      0.00000000	    -61.38435449	     -4.95216633	      7.09436629	     47.81402647	    -31.72494783	     21.68937590	    104.52099974	     52.41959230	      0.00000000	      0.00000000	     32.72321575	    -22.13781771	      8.86583238	     97.48872574	     50.73530376	      0.00000000	      0.00000000
      5.02000000	    -31.60746248	      3.81194181	    -15.62779121	      0.36820785	      1.15735856	     -0.31505971	      0.00000000	      0.50000000	      0.00000000	      0.25000000	     56.17253441	     -0.16003480	      5.07939121	     44.33893549	      0.77386041	     -1.88153592	      1.63628683	      0.00000000	      0.00000000	     55.48456733	     -4.07907122	     -0.09682082	     81.53498552	      1.42305395	    -23.11092251	     -5.47886829	      0.00000000	      0.00000000	    -61.01766443	     -5.08803105	      7.73182425	     45.71463277	    -33.68110951	     19.96657172	    105.96508732	     52.48505202	      0.00000000	      0.00000000	     34.16029926	    -21.04337076	     10.83040215	     96.18256842	     50.83774205	      0.00000000	      0.00000000
      5.02500000	    -31.34122436	      4.51901574	    -14.68163900	      0.36849661	      1.15538292	     -0.31492918	      0.00000000	      0.50000000	      0.00000000	      0.25000000	     54.86267745	     -1.17931628	      5.64981309	     42.32549768	      0.73871929	     -3.47300786	      0.91694253	      0.00000000	      0.00000000	     56.65756451	     -3.04504981	     -0.25544827	     83.86959836	      1.46380063	    -22.10933806	     -5.63572438	      0.00000000	      0.00000000	    -60.85960120	     -5.14685254	      6.70436005	     45.20293013	    -34.01447002	     19.87998349	    105.84219314	     52.46351613	      0.00000000	      0.00000000	     34.31108367	    -20.97601491	     11.00835677	     96.17147169	     50.85950039	      0.00000000	      0.00000000
      5.03000000	    -31.23900273	      4.95812104	    -13.79278714	      0.36861328	      1.15330065	     -0.31444884	      0.00000000	      0.50000000	      0.00000000	      0.25000000	     53.54665844	     -1.83541818	      6.08812334	     40.19288570	      0.70149819	     -5.60425924	     -0.97826790	      0.00000000	      0.00000000	     58.04522486	     -2.40560193	     -0.25316797	     86.25025185	      1.50535088	    -21.13531804	     -5.32644687	      0.00000000	      0.00000000	    -60.58988510	     -5.12672071	      6.17295742	     44.48761776	    -34.55715060	     19.57297710	    105.80482230	     52.43368606	      0.00000000	      0.00000000	     34.57395282	    -20.89687283	     11.60484703	     96.10527969	     50.92971040	      0.00000000	      0.00000000
      5.03500000	    -31.01831229	      5.52877072	    -12.78429408	      0.36881225	      1.15133265	     -0.31398059	      0.00000000	      0.50000000	      0.00000000	      0.25000000	     52.17558094	     -2.78098501	      6.43588800	     38.26103353	      0.66778101	     -7.39141645	     -2.31239508	      0.00000000	      0.00000000	     59.36036484	     -1.57928658	     -0.37817784	     88.52151416	      1.54499188	    -20.37655143	     -5.23140733	      0.00000000	      0.00000000	    -60.43769081	     -5.15461969	      5.45167560	     43.69368695	    -35.17212646	     19.26416397	    105.82232451	     52.40732252	      0.00000000	      0.00000000	     34.98293902	    -20.77515204	     12.20694920	     95.94880829	     50.97315830	      0.00000000	      0.00000000
      5.04000000	    -30.77774977	      6.29532805	    -11.69670892	      0.36887289	      1.14923399	     -0.31335680	      0.00000000	      0.50000000	      0.00000000	      0.25000000	     50.87864596	     -3.99629105	      6.77209292	     36.55994558	      0.63809142	     -8.54503048	     -2.75100501	      0.00000000	      0.00000000	     60.71556131	     -0.65334504	     -0.74200567	     90.69239377	      1.58288088	    -19.74078731	     -5.31393460	      0.00000000	      0.00000000	    -60.29401060	     -5.25988823	      4.40144810	     43.15274412	    -35.53739636	     19.19136207	    105.71795097	     52.38073626	      0.00000000	      0.00000000	     35.26559754	    -20.67711032	     12.43999379	     95.90437390	     50.98022574	      0.00000000	      0.00000000
      5.04500000	    -30.55393725	      6.78328640	    -10.45829165	      0.36887158	      1.14744323	     -0.31282111	      0.00000000	      0.50000000	      0.00000000	      0.25000000	     49.38839550	     -5.08418527	      6.64488324	     34.69029580	      0.60545988	    -10.63141472	     -4.74983999	      0.00000000	      0.00000000	     62.11299933	      0.18001432	     -0.81426538	     92.77284727	      1.61919164	    -19.45224819	     -5.13093079	      0.00000000	      0.00000000	    -60.20292030	     -5.12666896	      3.70998853	     42.21879437	    -36.16681191	     18.89152483	    105.67963532	     52.35120804	      0.00000000	      0.00000000	     35.83785971	    -20.73272805	     13.34065573	     95.69527706	     51.04026886	      0.00000000	      0.00000000
      5.05000000	    -30.47285374	      7.36016944	     -9.40658426	      0.36868894	      1.14520682	     -0.31216078	      0.00000000	      0.50000000	      0.00000000	      0.25000000	     48.14222115	     -6.19346252	      6.59351931	     33.04437444	      0.57673313	    -11.80113060	     -4.96024453	      0.00000000	      0.00000000	     63.68900883	      0.81629004	     -1.13356539	     94.87189857	      1.65582700	    -18.98230940	     -5.19892691	      0.00000000	      0.00000000	    -59.92236476	     -5.26406571	      2.81062883	     41.55685462	    -36.53635084	     18.74265283	    105.62436304	     52.32631316	      0.00000000	      0.00000000	     36.18205658	    -20.61851253	     13.77376019	     95.62600772	     51.06494980	      0.00000000	      0.00000000
      5.05500000	    -30.45764147	      7.70287785	     -8.22046929	      0.36829004	      1.14300877	     -0.31132154	      0.00000000	      0.50000000	      0.00000000	      0.25000000	     46.80076577	     -7.16238997	      6.22714025	     31.32881547	      0.54679098	    -13.31187163	     -5.88958668	      0.00000000	      0.00000000	     65.37386738	      1.32506892	     -1.21838009	     96.90976473	      1.69139447	    -18.70915581	     -5.07066234	      0.00000000	      0.00000000	    -59.67426347	     -5.33949243	      3.91309916	     38.04821184	    -38.48513753	     15.36824020	    107.45207252	     52.29614826	      0.00000000	      0.00000000	     38.46490461	    -19.51207239	     17.00725225	     93.70902069	     51.14396364	      0.00000000	      0.00000000
      5.06000000	    -30.48490053	      8.10022397	     -7.06045472	      0.36784665	      1.14080586	     -0.31048260	      0.00000000	      0.50000000	      0.00000000	      0.25000000	     45.54316059	     -8.23423157	      5.68346923	     29.75358785	      0.51929807	    -14.48786275	     -6.04503498	      0.00000000	      0.00000000	     67.12331361	      1.80290902	     -1.41301315	     98.84219201	      1.72512169	    -18.57360710	     -5.05839446	      0.00000000	      0.00000000	    -59.36095186	     -5.30043754	      2.99752794	     37.43953891	    -38.48652642	     15.19322151	    107.23852324	     52.23244991	      0.00000000	      0.00000000	     38.60309315	    -19.52392246	     17.15481127	     93.80813921	     51.16302626	      0.00000000	      0.00000000
      5.06500000	    -30.54520020	      8.34044778	     -5.82990030	      0.36747090	      1.13868064	     -0.30944992	      0.00000000	      0.50000000	      0.00000000	      0.25000000	     44.18238094	     -9.18098311	      5.00529175	     28.15642469	      0.49142232	    -15.60541421	     -6.48734812	      0.00000000	      0.00000000	     68.87416889	      2.20006178	     -1.42407528	    100.70520870	      1.75763747	    -18.29378325	     -4.85972737	      0.00000000	      0.00000000	    -59.06375631	     -5.20820690	      2.19878848	     36.56508371	    -37.76802897	     14.26882607	    106.94453303	     52.07969608	      0.00000000	      0.00000000	     38.94249656	    -19.70762653	     17.97112503	     94.07562025	     51.27926723	      0.00000000	      0.00000000
      5.07000000	    -30.64553461	      8.85944082	     -4.78410015	      0.36711439	      1.13666374	     -0.30806710	      0.00000000	      0.50000000	      0.00000000	      0.25000000	     43.01179992	    -10.25729932	      4.52980983	     26.73872959	      0.46667887	    -16.40416244	     -6.15667742	      0.00000000	      0.00000000	     70.64302784	      2.50738584	     -1.83354864	    102.38703305	      1.78699084	    -18.10239001	     -4.75148968	      0.00000000	      0.00000000	    -58.74534537	     -5.33346438	      1.30354156	     35.94621427	    -37.72829772	     14.20621087	    106.80723214	     52.04245799	      0.00000000	      0.00000000	     39.16331007	    -19.75212193	     18.10430995	     94.12995724	     51.28247674	      0.00000000	      0.00000000
